<svg width="911" height="768" viewBox="0 0 911 768" fill="none" xmlns="http://www.w3.org/2000/svg">
<path d="M740.546 -32.0126C755.443 -15.0241 772.945 1.62676 783.922 21.6207C797.282 45.9558 808.972 73.6923 815.503 100.656C827.025 148.221 803.799 209.843 756.288 227.495C732.237 236.431 705.901 240.646 680.499 235.34C672.305 233.629 657.948 229.822 656.109 219.735C654.71 212.062 669.403 206.631 674.515 204.86C685.444 201.074 696.814 202.95 702.393 213.857C720.588 249.431 705.711 286.322 687.897 318.038C673.311 344.005 658.407 369.618 637.806 391.378C608.802 422.014 570.964 437.494 530.393 446.905C494.674 455.19 460.896 455.477 425.215 447.415C405.445 442.948 382.024 437.416 366.538 423.343C361.444 418.714 355.612 410.804 354.337 403.809C353.052 396.761 365.793 412.781 369.848 418.686C396.71 457.802 383.084 511.099 361.258 548.242C304.876 644.191 207.619 702.271 121.163 767.574" stroke="white" stroke-width="3" stroke-linecap="round"/>
</svg>
