<?xml version="1.0" standalone="no"?>
<!DOCTYPE svg PUBLIC "-//W3C//DTD SVG 20010904//EN"
 "http://www.w3.org/TR/2001/REC-SVG-20010904/DTD/svg10.dtd">
<svg version="1.0" xmlns="http://www.w3.org/2000/svg"
 width="988.000000pt" height="519.000000pt" viewBox="0 0 988.000000 519.000000"
 preserveAspectRatio="xMidYMid meet">

<g transform="translate(0.000000,519.000000) scale(0.100000,-0.100000)"
fill="#000000" stroke="none">
<path d="M3159 5142 c-26 -17 -133 -139 -165 -188 -9 -13 -25 -24 -36 -24 -16
0 -18 3 -9 14 28 34 -196 49 -304 21 -79 -21 -150 -54 -205 -97 -43 -33 -48
-34 -70 -20 -21 12 -20 10 3 -8 28 -22 28 -40 1 -40 -9 0 -31 12 -50 26 -18
15 -67 36 -106 49 -56 17 -72 26 -70 39 2 9 -4 16 -13 16 -37 0 -4 -148 69
-315 21 -46 23 -64 20 -180 l-2 -130 8 120 c4 66 14 138 23 161 36 99 86 174
114 174 18 0 17 -3 -16 -52 -61 -92 -75 -149 -76 -308 -1 -116 -4 -145 -15
-145 -8 0 -18 11 -22 25 -6 19 -6 16 -3 -10 3 -19 11 -37 18 -39 6 -2 34 -25
62 -51 115 -108 200 -140 100 -37 -49 50 -65 75 -83 130 -55 167 -10 356 113
481 93 94 199 136 347 136 147 0 255 -45 346 -145 75 -81 96 -144 97 -278 0
-59 2 -107 5 -107 3 0 25 19 49 41 l44 41 -6 71 c-7 75 -31 157 -65 223 -15
29 -25 82 -37 209 -17 178 -23 215 -34 215 -3 0 -18 -8 -32 -18z m-41 -164 c6
-24 14 -58 18 -76 l6 -34 -44 28 c-23 16 -44 29 -46 30 -5 3 42 94 49 94 3 0
11 -19 17 -42z m-788 -212 c-1 -14 -28 -51 -34 -45 -3 3 -8 24 -12 48 l-7 43
27 -17 c14 -9 26 -22 26 -29z"/>
<path d="M3039 5063 c-13 -16 -12 -17 4 -4 16 13 21 21 13 21 -2 0 -10 -8 -17
-17z"/>
<path d="M2310 4876 c0 -2 7 -7 16 -10 8 -3 12 -2 9 4 -6 10 -25 14 -25 6z"/>
<path d="M2880 4645 c-30 -36 20 -70 94 -63 26 2 32 8 34 31 4 30 -1 33 -70
41 -33 4 -49 1 -58 -9z"/>
<path d="M2355 4520 c-32 -33 -38 -44 -29 -58 18 -28 37 -25 82 14 49 42 54
77 12 82 -18 2 -36 -8 -65 -38z"/>
<path d="M2967 4453 c-4 -3 -7 -19 -7 -35 0 -17 -4 -27 -10 -23 -5 3 -10 15
-10 26 0 11 -7 19 -16 19 -13 0 -15 -8 -12 -35 4 -35 -8 -48 -18 -20 -4 8 -12
15 -20 15 -21 0 -17 -38 6 -52 11 -7 20 -22 20 -34 0 -46 71 -72 104 -38 20
20 20 68 0 99 -11 16 -14 34 -9 55 5 22 3 30 -8 30 -7 0 -17 -3 -20 -7z"/>
<path d="M20 3205 l0 -1135 295 0 295 0 0 445 0 445 325 0 325 0 0 250 0 250
-325 0 -325 0 0 190 0 190 355 0 355 0 0 250 0 250 -650 0 -650 0 0 -1135z"/>
<path d="M4216 4328 c5 -7 167 -244 362 -527 194 -282 351 -519 348 -526 -3
-9 -823 -1135 -869 -1193 -8 -10 61 -12 348 -10 l358 3 249 360 c137 198 252
361 256 362 4 2 114 -161 246 -362 l238 -365 354 0 c195 0 354 3 354 6 0 3
-191 275 -425 605 l-425 600 337 482 c184 265 351 503 370 530 l35 47 -365 0
-364 0 -172 -290 c-95 -159 -176 -288 -180 -285 -4 2 -81 133 -171 290 l-163
285 -364 0 c-289 0 -363 -3 -357 -12z"/>
<path d="M2412 4285 c5 -40 5 -40 -17 -19 -8 9 -22 13 -31 10 -20 -8 0 -46 27
-53 10 -3 19 -13 19 -22 0 -48 65 -76 99 -42 26 26 27 56 1 88 -13 17 -18 33
-14 50 6 21 3 24 -12 21 -11 -2 -20 -13 -22 -26 -4 -26 -22 -20 -22 9 0 11 -7
19 -16 19 -13 0 -15 -8 -12 -35z"/>
<path d="M3265 4204 c-11 -20 -49 -66 -86 -103 -104 -106 -253 -174 -406 -186
-53 -4 -55 -3 -25 7 54 19 82 51 82 98 0 22 -4 40 -10 40 -5 0 -10 -12 -10
-28 0 -40 -25 -70 -71 -84 -23 -6 -43 -18 -46 -25 -3 -8 -23 -13 -57 -13 -49
0 -52 2 -64 32 -6 17 -11 32 -9 33 1 1 30 17 65 35 34 18 62 36 62 39 0 5 -82
56 -112 69 -4 2 -19 -22 -32 -52 -15 -33 -31 -56 -40 -56 -13 0 -12 8 6 55 21
56 19 81 -5 54 -8 -8 -21 -40 -31 -72 -10 -32 -24 -61 -31 -63 -32 -13 -158
100 -184 164 -7 17 -18 32 -23 32 -22 0 -128 -80 -206 -155 -218 -208 -329
-446 -357 -761 -13 -155 30 -390 100 -542 39 -85 134 -234 145 -230 4 2 69 74
144 160 l136 157 -22 43 c-21 39 -23 57 -23 190 0 134 2 149 22 176 12 16 26
53 31 83 37 197 162 364 338 450 44 21 93 52 109 69 34 35 136 73 143 52 9
-27 35 -42 73 -42 50 0 109 24 109 45 0 13 8 15 52 9 38 -5 49 -4 44 5 -12 19
73 90 122 103 34 8 55 25 104 79 63 71 90 83 108 49 9 -17 1 -30 -54 -94 -63
-71 -65 -76 -55 -106 6 -17 9 -42 6 -57 -7 -40 7 -75 69 -173 53 -84 56 -92
44 -119 -6 -16 -22 -39 -35 -51 l-23 -22 24 -53 c80 -174 65 -400 -36 -568
-38 -63 -38 -62 -15 -148 6 -24 2 -28 -38 -47 -57 -27 -172 -57 -277 -73 l-80
-12 0 -36 c0 -20 7 -115 15 -211 8 -96 15 -178 15 -182 0 -5 -8 -8 -18 -8 -16
0 -23 27 -55 206 -20 114 -38 209 -41 212 -3 3 -43 5 -88 6 l-83 1 -12 -65
c-6 -36 -22 -134 -34 -217 -22 -149 -23 -153 -47 -153 -24 0 -24 1 -18 68 16
183 27 365 22 378 -3 7 -17 14 -31 14 -35 0 -146 38 -168 58 -11 10 -17 27
-16 47 2 16 -4 40 -12 53 -14 22 -43 30 -54 13 -3 -5 -18 -12 -34 -16 -21 -4
-62 -45 -152 -148 -67 -78 -132 -152 -143 -165 l-20 -22 45 -46 c102 -105 266
-209 413 -263 39 -15 70 -30 69 -34 -2 -4 -3 -47 -3 -97 l0 -89 -43 -19 c-51
-23 -107 -76 -107 -103 0 -18 9 -19 180 -19 l180 0 0 143 c0 79 2 146 4 148 2
2 50 3 105 1 l101 -3 0 -140 0 -139 180 0 c171 0 180 1 180 19 0 27 -50 74
-104 100 l-46 21 0 89 0 88 78 28 c42 15 115 47 160 71 l84 44 146 3 c89 3
161 9 182 17 163 62 366 272 395 407 5 23 0 46 -19 86 -30 62 -55 77 -125 77
-37 0 -52 5 -69 23 -12 13 -22 31 -22 40 0 29 -44 50 -90 42 -32 -5 -40 -4
-40 9 0 21 34 43 92 58 38 9 53 18 60 38 6 15 8 95 5 195 -5 192 -22 277 -86
425 -70 164 -209 344 -345 449 -59 46 -215 141 -231 141 -6 0 -19 -16 -30 -36z
m-777 -267 c2 -10 -3 -17 -12 -17 -18 0 -29 16 -21 31 9 14 29 6 33 -14z
m1330 -1039 c21 -21 13 -45 -44 -125 -76 -107 -111 -142 -169 -169 -100 -47
-275 -21 -275 41 0 35 19 39 92 21 112 -28 183 4 259 115 52 76 98 129 113
129 7 0 17 -5 24 -12z m-731 -760 c6 -7 13 -68 16 -135 4 -104 3 -122 -11
-128 -8 -3 -19 -2 -25 4 -13 13 -24 250 -13 261 13 13 22 12 33 -2z m-531
-125 c-4 -70 -9 -130 -12 -135 -3 -4 -14 -8 -25 -8 -20 0 -20 4 -13 128 3 70
8 130 11 135 2 4 14 7 25 7 20 0 21 -3 14 -127z m632 -149 c25 -16 29 -34 8
-34 -21 0 -86 29 -86 38 0 26 33 24 78 -4z m-698 3 c0 -12 -59 -47 -80 -47
-20 0 -9 26 18 42 32 21 62 23 62 5z m745 -47 c3 -5 1 -10 -4 -10 -6 0 -11 5
-11 10 0 6 2 10 4 10 3 0 8 -4 11 -10z m-845 -4 c0 -3 -4 -8 -10 -11 -5 -3
-10 -1 -10 4 0 6 5 11 10 11 6 0 10 -2 10 -4z"/>
<path d="M2483 3623 c-73 -106 -72 -115 2 -15 25 35 45 66 42 68 -2 2 -22 -22
-44 -53z"/>
<path d="M2509 3588 c-65 -90 -116 -177 -154 -266 -30 -69 -32 -78 -17 -84 44
-17 56 -9 92 60 19 37 65 118 102 179 38 62 68 119 68 126 0 13 -30 47 -41 47
-3 0 -26 -28 -50 -62z"/>
<path d="M3335 3481 c-6 -6 -37 -17 -69 -25 -32 -9 -61 -18 -64 -21 -4 -4 11
-29 41 -67 8 -10 28 -18 45 -18 39 0 59 28 68 93 7 45 -1 58 -21 38z"/>
<path d="M3216 2995 c4 -8 12 -15 20 -15 8 0 14 7 14 15 0 8 -9 15 -20 15 -13
0 -18 -5 -14 -15z"/>
<path d="M3130 2991 c0 -15 16 -22 34 -15 25 9 19 24 -9 24 -14 0 -25 -4 -25
-9z"/>
<path d="M3062 2983 c-17 -7 -5 -23 19 -23 10 0 19 7 19 15 0 15 -14 18 -38 8z"/>
<path d="M2980 2957 c0 -21 12 -28 27 -16 19 16 16 29 -7 29 -11 0 -20 -6 -20
-13z"/>
<path d="M3244 2946 c-4 -11 -2 -21 7 -27 18 -11 24 5 10 28 -9 17 -10 17 -17
-1z"/>
<path d="M2990 2885 c0 -18 4 -23 15 -19 8 4 15 12 15 19 0 7 -7 15 -15 19
-11 4 -15 -1 -15 -19z"/>
<path d="M3257 2884 c-8 -8 3 -34 14 -34 5 0 9 9 9 20 0 19 -11 26 -23 14z"/>
<path d="M3000 2817 c0 -19 4 -25 15 -21 8 4 15 10 15 14 0 4 -7 13 -15 20
-13 11 -15 8 -15 -13z"/>
<path d="M3271 2812 c-13 -24 1 -39 17 -19 6 7 7 18 3 26 -7 11 -11 9 -20 -7z"/>
<path d="M3010 2751 c0 -12 6 -21 15 -21 8 0 15 4 15 9 0 5 -7 14 -15 21 -13
10 -15 9 -15 -9z"/>
<path d="M3223 2755 c-3 -9 -3 -19 1 -22 7 -7 36 16 36 28 0 15 -30 10 -37 -6z"/>
<path d="M3086 2732 c-12 -11 -5 -20 19 -24 16 -3 25 -1 25 7 0 13 -35 27 -44
17z"/>
<path d="M3174 2705 c-18 -14 -18 -14 3 -15 23 0 39 15 25 24 -5 3 -18 -1 -28
-9z"/>
<path d="M9466 1517 c-19 -14 -19 -15 0 -47 29 -50 66 -73 128 -78 72 -6 135
23 162 74 19 35 19 36 0 50 -18 12 -21 11 -37 -15 -26 -43 -58 -61 -110 -61
-38 0 -52 5 -75 28 -16 15 -33 36 -39 45 -9 16 -12 16 -29 4z"/>
<path d="M770 1107 l-175 -212 -3 203 -2 202 -25 0 -25 0 0 -272 c0 -151 4
-268 9 -262 4 5 84 101 177 214 l169 204 3 -197 2 -197 25 0 25 0 0 265 c0
146 -1 265 -2 265 -2 0 -82 -96 -178 -213z"/>
<path d="M9622 1106 l-177 -215 -3 205 -2 204 -25 0 -25 0 0 -272 c0 -265 1
-272 18 -253 10 11 93 109 183 219 l164 198 3 -201 2 -201 25 0 25 0 0 265 c0
146 -2 265 -5 265 -3 0 -85 -96 -183 -214z"/>
<path d="M1290 1301 c-75 -24 -135 -78 -167 -149 -25 -58 -22 -175 6 -234 31
-63 88 -113 152 -132 66 -20 102 -20 166 -1 69 21 103 49 103 86 l0 30 -33
-25 c-86 -66 -173 -74 -257 -23 -72 43 -100 95 -100 187 0 125 73 210 189 218
71 5 121 -10 168 -51 l34 -30 -3 38 c-3 35 -8 41 -52 64 -53 27 -157 38 -206
22z"/>
<path d="M2234 1294 c-207 -76 -231 -381 -37 -486 195 -107 418 36 401 256 -8
97 -59 175 -143 218 -52 27 -164 34 -221 12z m194 -53 c49 -25 76 -56 103
-115 28 -63 22 -137 -16 -202 -72 -123 -243 -140 -340 -33 -45 51 -57 80 -57
149 0 93 40 162 114 199 56 27 144 28 196 2z"/>
<path d="M3270 1301 c-112 -34 -173 -125 -174 -256 -1 -86 16 -136 62 -187 55
-61 104 -82 187 -82 75 0 118 15 168 62 l27 26 0 -37 c0 -33 3 -37 25 -37 l25
0 0 255 0 255 -25 0 c-23 0 -25 -4 -25 -42 l0 -42 -33 32 c-54 53 -160 76
-237 53z m189 -74 c59 -39 85 -95 85 -182 0 -78 -21 -130 -71 -177 -83 -79
-217 -61 -287 40 -24 34 -31 55 -34 107 -6 92 4 130 46 177 49 55 84 69 158
65 47 -2 72 -9 103 -30z"/>
<path d="M4201 1293 c-171 -62 -218 -314 -84 -448 81 -81 207 -96 317 -37 47
25 51 30 54 67 l3 40 -28 -27 c-65 -62 -166 -84 -241 -52 -146 61 -178 260
-61 371 44 41 77 53 148 53 48 0 67 -6 115 -35 l57 -34 -3 32 c-3 27 -10 36
-53 57 -63 31 -160 37 -224 13z"/>
<path d="M5615 1295 c-208 -77 -232 -382 -38 -487 134 -74 294 -30 371 100 24
41 27 57 27 132 0 63 -5 94 -19 120 -26 49 -74 98 -121 122 -52 27 -164 34
-220 13z m194 -55 c113 -57 153 -202 87 -315 -73 -124 -244 -141 -341 -34 -20
22 -40 51 -45 65 -14 37 -12 140 4 177 16 41 71 96 111 113 46 20 139 17 184
-6z"/>
<path d="M6261 1293 c-60 -21 -124 -87 -144 -148 -33 -94 -17 -207 38 -279 58
-76 188 -114 287 -81 80 26 108 50 108 91 l0 36 -40 -35 c-95 -81 -228 -74
-307 16 -72 82 -71 215 3 297 51 56 93 73 173 68 55 -3 74 -9 114 -37 l48 -33
-3 33 c-2 28 -10 38 -47 58 -57 31 -166 38 -230 14z"/>
<path d="M7213 1294 c-58 -21 -118 -84 -139 -146 -25 -76 -16 -191 20 -252 78
-134 262 -165 372 -64 l44 41 0 -42 c0 -37 2 -41 25 -41 l25 0 0 255 0 255
-25 0 c-23 0 -25 -4 -25 -42 l0 -42 -27 26 c-16 14 -44 34 -63 43 -47 24 -154
29 -207 9z m186 -54 c81 -41 117 -113 108 -217 -9 -121 -89 -203 -196 -203
-210 0 -281 320 -92 420 48 26 130 26 180 0z"/>
<path d="M8875 1295 c-176 -65 -228 -310 -94 -444 126 -126 351 -93 431 63 30
58 36 162 13 223 -22 57 -76 118 -129 145 -53 27 -165 34 -221 13z m194 -55
c110 -56 151 -187 94 -301 -37 -71 -93 -111 -167 -117 -94 -8 -174 37 -217
119 -23 46 -26 144 -5 192 16 41 71 96 111 113 46 20 139 17 184 -6z"/>
<path d="M0 1220 c0 -106 15 -172 46 -201 24 -22 33 -24 145 -24 l119 0 0
-102 0 -103 25 0 25 0 0 255 0 255 -25 0 -24 0 -3 -127 -3 -128 -81 -8 c-146
-15 -174 13 -174 181 0 81 0 82 -25 82 -25 0 -25 -1 -25 -80z"/>
<path d="M1610 1275 c0 -25 1 -25 90 -25 l90 0 0 -230 0 -230 25 0 25 0 0 230
0 230 90 0 c89 0 90 0 90 25 l0 25 -205 0 -205 0 0 -25z"/>
<path d="M2640 1275 c0 -25 1 -25 90 -25 l90 0 0 -230 0 -230 25 0 25 0 0 230
0 230 90 0 c89 0 90 0 90 25 l0 25 -205 0 -205 0 0 -25z"/>
<path d="M4958 1122 c-5 -206 -16 -243 -80 -277 l-38 -20 0 -87 c0 -87 0 -88
25 -88 24 0 25 2 25 70 l0 70 215 0 215 0 0 -70 c0 -68 1 -70 25 -70 25 0 25
1 25 89 l0 90 -37 3 -38 3 -3 233 -2 232 -164 0 -163 0 -5 -178z m282 -82 l0
-210 -146 0 c-80 0 -144 3 -142 8 50 96 52 105 56 260 l4 152 114 0 114 0 0
-210z"/>
<path d="M6610 1275 c0 -25 1 -25 90 -25 l90 0 0 -230 0 -230 25 0 25 0 0 230
0 230 90 0 c89 0 90 0 90 25 l0 25 -205 0 -205 0 0 -25z"/>
<path d="M7740 1045 l0 -255 131 0 c148 0 188 12 220 64 40 66 12 175 -51 199
l-30 11 23 24 c17 19 22 35 22 82 0 101 -46 130 -210 130 l-105 0 0 -255z
m245 180 c17 -16 25 -35 25 -60 0 -25 -8 -44 -25 -60 -22 -23 -32 -25 -110
-25 l-85 0 0 85 0 85 85 0 c78 0 88 -2 110 -25z m6 -205 c90 -25 92 -139 3
-176 -20 -8 -68 -14 -119 -14 l-85 0 0 100 0 100 83 0 c45 0 98 -5 118 -10z"/>
<path d="M8260 1045 l0 -255 25 0 25 0 0 104 c0 154 3 154 150 12 110 -106
124 -116 158 -116 l37 0 -139 132 -138 132 128 123 c123 116 127 122 98 123
-26 0 -51 -19 -160 -121 l-129 -121 -3 121 -3 121 -24 0 -25 0 0 -255z"/>
</g>
</svg>
